# xmcd
#
# Track frame offsets:
#	182
#	17725
#	38190
#	54202
#	72005
#	88145
#	101335
#	113200
#	128017
#	146832
#
# Disc length: 2216 seconds
#
# Revision: 0
# Processed by: cddbd v1.5PL3 Copyright (c) Steve Scherf et al.
# Submitted via: dBpowerAMP V4.0
#
DISCID=8008a60a
DTITLE=Specs Hildebrand&the Living Room Band - Blood meridian
DYEAR=1900
DGENRE=Country
TTITLE0=Friendly fire
TTITLE1=Puerto rican flower
TTITLE2=Dimestore dostoevsky
TTITLE3=So long ago
TTITLE4=Don't cannibalize the wreck
TTITLE5=A piece of paper and a ring
TTITLE6=Cadillac jack
TTITLE7=Blood meridian
TTITLE8=Army duffel bag
TTITLE9=A cat called lee
EXTD=A Bertelsmann music group company
EXTT0=
EXTT1=
EXTT2=
EXTT3=
EXTT4=
EXTT5=
EXTT6=
EXTT7=
EXTT8=
EXTT9=
PLAYORDER=
